# xmcd
#
# Track frame offsets:
#	150
#	12499
#	23605
#	36102
#	45977
#	56317
#	67102
#	77348
#	88274
#	100029
#	111168
#	120952
#	132334
#	144824
#	156624
#	166804
#	177661
#	190236
#	200482
#	212515
#
# Disc length: 2985 seconds
#
# Revision: 1
# Processed by: cddbd v1.5.2PL0 Copyright (c) Steve Scherf et al.
# Submitted via: audiograbber 1.83.01
#
DISCID=070ba714
DTITLE=Johnny Cash - I walk the line
DYEAR=1900
DGENRE=
TTITLE0=I walk the line
TTITLE1=Oh Lonesome Me
TTITLE2=Give My Love To Rose
TTITLE3=Ballad Of A Teenage Queen
TTITLE4=You Win Again
TTITLE5=Wide Open Road
TTITLE6=There You Go
TTITLE7=Cry, Cry, Cry
TTITLE8=So Doggone Lonesome
TTITLE9=Mean Eyed Cat
TTITLE10=Rock Island Line
TTITLE11=Big River
TTITLE12=Folsom Prison Blues
TTITLE13=Doin' my Time
TTITLE14=I Was There When It Happened
TTITLE15=I Heard That Lonesame Whistle Blow
TTITLE16=Next In Line
TTITLE17=The Ways Of A Woman In Love
TTITLE18=Home Of The Blues
TTITLE19=Ring Of Fire
EXTD=
EXTT0=
EXTT1=
EXTT2=
EXTT3=
EXTT4=
EXTT5=
EXTT6=
EXTT7=
EXTT8=
EXTT9=
EXTT10=
EXTT11=
EXTT12=
EXTT13=
EXTT14=
EXTT15=
EXTT16=
EXTT17=
EXTT18=
EXTT19=
PLAYORDER=
